<svg width="36" height="37" viewBox="0 0 36 37" fill="none" xmlns="http://www.w3.org/2000/svg">
<path d="M26.8111 7.62412C23.5702 4.38327 18.2926 4.38327 15.0552 7.62412L6.07581 16.5967C6.01732 16.6551 5.98636 16.7343 5.98636 16.8168C5.98636 16.8994 6.01732 16.9785 6.07581 17.037L7.34531 18.3065C7.40334 18.3643 7.48189 18.3967 7.56378 18.3967C7.64567 18.3967 7.72422 18.3643 7.78224 18.3065L16.7617 9.33399C17.8764 8.21931 19.3592 7.60692 20.9349 7.60692C22.5106 7.60692 23.9934 8.21931 25.1046 9.33399C26.2193 10.4487 26.8317 11.9315 26.8317 13.5037C26.8317 15.0794 26.2193 16.5588 25.1046 17.6735L15.9532 26.8215L14.4704 28.3043C13.0839 29.6908 10.8304 29.6908 9.44395 28.3043C8.77308 27.6334 8.40496 26.7424 8.40496 25.7928C8.40496 24.8433 8.77308 23.9522 9.44395 23.2813L18.5232 14.2056C18.7537 13.9785 19.0564 13.8512 19.3798 13.8512H19.3832C19.7066 13.8512 20.006 13.9785 20.233 14.2056C20.4635 14.4361 20.5874 14.7388 20.5874 15.0622C20.5874 15.3822 20.4601 15.685 20.233 15.912L12.8121 23.3261C12.7536 23.3846 12.7226 23.4637 12.7226 23.5463C12.7226 23.6288 12.7536 23.708 12.8121 23.7664L14.0816 25.0359C14.1396 25.0937 14.2182 25.1262 14.3001 25.1262C14.382 25.1262 14.4605 25.0937 14.5185 25.0359L21.936 17.6185C22.6207 16.9338 22.9957 16.0256 22.9957 15.0588C22.9957 14.0921 22.6172 13.1804 21.936 12.4992C20.522 11.0852 18.2238 11.0886 16.8098 12.4992L15.9291 13.3833L7.73408 21.5749C7.17787 22.1278 6.73698 22.7857 6.43697 23.5104C6.13695 24.235 5.98379 25.012 5.98636 25.7963C5.98636 27.3892 6.60907 28.8857 7.73408 30.0108C8.90037 31.1736 10.4279 31.755 11.9554 31.755C13.483 31.755 15.0105 31.1736 16.1734 30.0108L26.8111 19.3799C28.3764 17.8111 29.2434 15.7228 29.2434 13.5037C29.2469 11.2813 28.3799 9.19294 26.8111 7.62412Z" fill="#333333"/>
</svg>
