<svg width="33" height="33" viewBox="0 0 33 33" fill="none" xmlns="http://www.w3.org/2000/svg">
<path d="M10.4897 6.15919C10.4897 4.57414 11.1194 3.054 12.2402 1.9332C13.361 0.812399 14.8811 0.182739 16.4662 0.182739C18.0513 0.182739 19.5714 0.812399 20.6922 1.9332C21.813 3.054 22.4427 4.57414 22.4427 6.15919V16.1199C22.4427 17.705 21.813 19.2251 20.6922 20.3459C19.5714 21.4667 18.0513 22.0964 16.4662 22.0964C14.8811 22.0964 13.361 21.4667 12.2402 20.3459C11.1194 19.2251 10.4897 17.705 10.4897 16.1199V6.15919Z" fill="white"/>
<path d="M7.50145 13.1317C7.76562 13.1317 8.01898 13.2367 8.20578 13.4235C8.39258 13.6103 8.49752 13.8636 8.49752 14.1278V16.1199C8.49752 18.2333 9.33707 20.2602 10.8315 21.7546C12.3259 23.249 14.3527 24.0885 16.4661 24.0885C18.5795 24.0885 20.6064 23.249 22.1008 21.7546C23.5952 20.2602 24.4347 18.2333 24.4347 16.1199V14.1278C24.4347 13.8636 24.5397 13.6103 24.7265 13.4235C24.9133 13.2367 25.1666 13.1317 25.4308 13.1317C25.695 13.1317 25.9483 13.2367 26.1351 13.4235C26.3219 13.6103 26.4269 13.8636 26.4269 14.1278V16.1199C26.4269 18.5893 25.5097 20.9706 23.8533 22.8019C22.1968 24.6332 19.9192 25.784 17.4622 26.0309V30.065H23.4387C23.7028 30.065 23.9562 30.1699 24.143 30.3567C24.3298 30.5435 24.4347 30.7969 24.4347 31.0611C24.4347 31.3252 24.3298 31.5786 24.143 31.7654C23.9562 31.9522 23.7028 32.0571 23.4387 32.0571H9.4936C9.22942 32.0571 8.97607 31.9522 8.78927 31.7654C8.60247 31.5786 8.49752 31.3252 8.49752 31.0611C8.49752 30.7969 8.60247 30.5435 8.78927 30.3567C8.97607 30.1699 9.22942 30.065 9.4936 30.065H15.47V26.0309C13.0131 25.784 10.7355 24.6332 9.07899 22.8019C7.42253 20.9706 6.50534 18.5893 6.50537 16.1199V14.1278C6.50537 13.8636 6.61031 13.6103 6.79712 13.4235C6.98392 13.2367 7.23727 13.1317 7.50145 13.1317Z" fill="white"/>
</svg>
