<svg width="35" height="34" viewBox="0 0 35 34" fill="none" xmlns="http://www.w3.org/2000/svg">
<path d="M20.5464 27.4934C20.5464 28.3277 20.215 29.1278 19.6251 29.7176C19.0352 30.3075 18.2351 30.6389 17.4009 30.6389C16.5666 30.6389 15.7666 30.3075 15.1767 29.7176C14.5868 29.1278 14.2554 28.3277 14.2554 27.4934C14.2554 26.6592 14.5868 25.8591 15.1767 25.2692C15.7666 24.6793 16.5666 24.3479 17.4009 24.3479C18.2351 24.3479 19.0352 24.6793 19.6251 25.2692C20.215 25.8591 20.5464 26.6592 20.5464 27.4934ZM20.5464 17.0084C20.5464 17.8427 20.215 18.6427 19.6251 19.2326C19.0352 19.8225 18.2351 20.1539 17.4009 20.1539C16.5666 20.1539 15.7666 19.8225 15.1767 19.2326C14.5868 18.6427 14.2554 17.8427 14.2554 17.0084C14.2554 16.1742 14.5868 15.3741 15.1767 14.7842C15.7666 14.1943 16.5666 13.8629 17.4009 13.8629C18.2351 13.8629 19.0352 14.1943 19.6251 14.7842C20.215 15.3741 20.5464 16.1742 20.5464 17.0084ZM20.5464 6.52343C20.5464 7.35767 20.215 8.15774 19.6251 8.74764C19.0352 9.33753 18.2351 9.66893 17.4009 9.66893C16.5666 9.66893 15.7666 9.33753 15.1767 8.74764C14.5868 8.15774 14.2554 7.35767 14.2554 6.52343C14.2554 5.68919 14.5868 4.88912 15.1767 4.29923C15.7666 3.70933 16.5666 3.37793 17.4009 3.37793C18.2351 3.37793 19.0352 3.70933 19.6251 4.29923C20.215 4.88912 20.5464 5.68919 20.5464 6.52343Z" fill="#9747FF"/>
</svg>
