<svg width="33" height="33" viewBox="0 0 33 33" fill="none" xmlns="http://www.w3.org/2000/svg">
<path d="M19.2717 4.0247C19.7924 4.02466 20.304 4.16067 20.7559 4.41925C21.2079 4.67782 21.5844 5.05 21.8482 5.4989L22.9293 7.34097H25.6798C26.8243 7.34097 27.922 7.79554 28.7314 8.60472C29.5408 9.41391 29.9957 10.5114 29.9961 11.656V24.2729C29.9961 24.8398 29.8845 25.401 29.6675 25.9247C29.4506 26.4484 29.1327 26.9242 28.7319 27.325C28.3311 27.7258 27.8552 28.0438 27.3316 28.2607C26.8079 28.4776 26.2466 28.5893 25.6798 28.5893H7.75041C6.60565 28.5893 5.50777 28.1345 4.6983 27.325C3.88884 26.5156 3.43408 25.4177 3.43408 24.2729V11.656C3.43408 10.5112 3.88884 9.41333 4.6983 8.60387C5.50777 7.7944 6.60565 7.33964 7.75041 7.33964H10.5129L11.6749 5.44843C11.9421 5.0131 12.3165 4.65354 12.7622 4.40406C13.2079 4.15458 13.7101 4.02351 14.2209 4.02338H19.2717V4.0247ZM19.2717 6.01686H14.2209C14.0756 6.01697 13.932 6.0489 13.8003 6.11038C13.6686 6.17187 13.552 6.26143 13.4586 6.37279L13.3723 6.49232L11.9206 8.85633C11.8316 9.00153 11.7069 9.12147 11.5583 9.20471C11.4097 9.28795 11.2423 9.3317 11.072 9.33179H7.75174C7.44641 9.33162 7.14404 9.39161 6.86191 9.50833C6.57977 9.62505 6.3234 9.79622 6.10744 10.0121C5.89148 10.2279 5.72016 10.4842 5.60328 10.7662C5.48639 11.0483 5.42623 11.3506 5.42623 11.656V24.2729C5.42623 25.5559 6.46746 26.5971 7.75041 26.5971H25.6798C26.2962 26.5971 26.8873 26.3522 27.3232 25.9164C27.7591 25.4805 28.0039 24.8893 28.0039 24.2729V11.656C28.0039 11.0396 27.7591 10.4484 27.3232 10.0125C26.8873 9.57666 26.2962 9.33179 25.6798 9.33179H22.3595C22.1859 9.33189 22.0152 9.28659 21.8645 9.20039C21.7138 9.11419 21.5882 8.99009 21.5002 8.8404L20.1296 6.50692C20.0418 6.35742 19.9164 6.23345 19.7659 6.14726C19.6155 6.06108 19.4451 6.01567 19.2717 6.01553V6.01686ZM16.7151 11.3239C18.3001 11.3239 19.8203 11.9536 20.9411 13.0744C22.0619 14.1952 22.6915 15.7153 22.6915 17.3004C22.6915 18.8855 22.0619 20.4056 20.9411 21.5264C19.8203 22.6472 18.3001 23.2768 16.7151 23.2768C15.13 23.2768 13.6099 22.6472 12.4891 21.5264C11.3683 20.4056 10.7386 18.8855 10.7386 17.3004C10.7386 15.7153 11.3683 14.1952 12.4891 13.0744C13.6099 11.9536 15.13 11.3239 16.7151 11.3239ZM16.7151 13.3161C16.1919 13.3161 15.6738 13.4192 15.1904 13.6194C14.707 13.8196 14.2677 14.1131 13.8978 14.4831C13.5278 14.853 13.2343 15.2923 13.0341 15.7757C12.8338 16.2591 12.7308 16.7772 12.7308 17.3004C12.7308 17.8236 12.8338 18.3417 13.0341 18.8251C13.2343 19.3085 13.5278 19.7477 13.8978 20.1177C14.2677 20.4877 14.707 20.7812 15.1904 20.9814C15.6738 21.1816 16.1919 21.2847 16.7151 21.2847C17.7718 21.2847 18.7852 20.8649 19.5324 20.1177C20.2796 19.3705 20.6994 18.3571 20.6994 17.3004C20.6994 16.2437 20.2796 15.2303 19.5324 14.4831C18.7852 13.7359 17.7718 13.3161 16.7151 13.3161Z" fill="#333333"/>
</svg>
