<svg width="37" height="37" viewBox="0 0 37 37" fill="none" xmlns="http://www.w3.org/2000/svg">
<path d="M14.2656 13.5473C13.9667 13.5473 13.68 13.666 13.4686 13.8774C13.2573 14.0888 13.1385 14.3755 13.1385 14.6744C13.1385 14.9733 13.0197 15.26 12.8084 15.4714C12.597 15.6828 12.3103 15.8015 12.0114 15.8015C11.7124 15.8015 11.4257 15.6828 11.2144 15.4714C11.003 15.26 10.8842 14.9733 10.8842 14.6744C10.8842 13.7776 11.2405 12.9175 11.8746 12.2834C12.5088 11.6492 13.3688 11.293 14.2656 11.293C15.1624 11.293 16.0225 11.6492 16.6567 12.2834C17.2908 12.9175 17.6471 13.7776 17.6471 14.6744C17.6471 14.9733 17.5283 15.26 17.3169 15.4714C17.1055 15.6828 16.8189 15.8015 16.5199 15.8015C16.221 15.8015 15.9343 15.6828 15.7229 15.4714C15.5115 15.26 15.3928 14.9733 15.3928 14.6744C15.3928 14.3755 15.274 14.0888 15.0626 13.8774C14.8513 13.666 14.5646 13.5473 14.2656 13.5473ZM23.2827 13.5473C22.9838 13.5473 22.6971 13.666 22.4857 13.8774C22.2744 14.0888 22.1556 14.3755 22.1556 14.6744C22.1556 14.9733 22.0369 15.26 21.8255 15.4714C21.6141 15.6828 21.3274 15.8015 21.0285 15.8015C20.7295 15.8015 20.4428 15.6828 20.2315 15.4714C20.0201 15.26 19.9013 14.9733 19.9013 14.6744C19.9013 13.7776 20.2576 12.9175 20.8917 12.2834C21.5259 11.6492 22.3859 11.293 23.2827 11.293C24.1796 11.293 25.0396 11.6492 25.6738 12.2834C26.3079 12.9175 26.6642 13.7776 26.6642 14.6744C26.6642 14.9733 26.5454 15.26 26.334 15.4714C26.1226 15.6828 25.836 15.8015 25.537 15.8015C25.2381 15.8015 24.9514 15.6828 24.74 15.4714C24.5286 15.26 24.4099 14.9733 24.4099 14.6744C24.4099 14.3755 24.2911 14.0888 24.0798 13.8774C23.8684 13.666 23.5817 13.5473 23.2827 13.5473ZM10.9631 18.0558C10.8018 18.0558 10.6423 18.0905 10.4955 18.1574C10.3488 18.2244 10.2181 18.3221 10.1123 18.4439C10.0065 18.5657 9.92808 18.7088 9.88236 18.8635C9.83664 19.0183 9.82467 19.181 9.84726 19.3407C10.1535 21.4901 11.225 23.4569 12.865 24.8797C14.5049 26.3025 16.6031 27.0858 18.7742 27.0858C20.9453 27.0858 23.0435 26.3025 24.6834 24.8797C26.3234 23.4569 27.3949 21.4901 27.7011 19.3407C27.7237 19.1808 27.7117 19.0179 27.6659 18.863C27.62 18.7081 27.5414 18.5649 27.4354 18.443C27.3293 18.3212 27.1984 18.2236 27.0513 18.1567C26.9042 18.0899 26.7445 18.0555 26.583 18.0558H10.9631ZM18.7742 24.8186C17.3752 24.8187 16.0106 24.3852 14.8682 23.5778C13.7257 22.7704 12.8615 21.6288 12.3946 20.3101H25.1538C24.6868 21.6288 23.8227 22.7704 22.6802 23.5778C21.5378 24.3852 20.1732 24.8187 18.7742 24.8186ZM32.2998 18.0558C32.2998 16.2796 31.95 14.5208 31.2703 12.8798C30.5905 11.2388 29.5942 9.7477 28.3383 8.49172C27.0823 7.23575 25.5912 6.23946 23.9502 5.55973C22.3092 4.88 20.5504 4.53015 18.7742 4.53015C16.998 4.53015 15.2392 4.88 13.5981 5.55973C11.9571 6.23946 10.4661 7.23575 9.21011 8.49172C7.95413 9.7477 6.95784 11.2388 6.27811 12.8798C5.59839 14.5208 5.24854 16.2796 5.24854 18.0558C5.24854 21.643 6.67356 25.0833 9.21011 27.6199C11.7467 30.1564 15.187 31.5815 18.7742 31.5815C22.3614 31.5815 25.8017 30.1564 28.3383 27.6199C30.8748 25.0833 32.2998 21.643 32.2998 18.0558ZM7.50281 18.0558C7.50281 15.0665 8.69033 12.1995 10.8041 10.0857C12.9179 7.97194 15.7848 6.78443 18.7742 6.78443C21.7635 6.78443 24.6305 7.97194 26.7443 10.0857C28.8581 12.1995 30.0456 15.0665 30.0456 18.0558C30.0456 21.0452 28.8581 23.9121 26.7443 26.0259C24.6305 28.1397 21.7635 29.3272 18.7742 29.3272C15.7848 29.3272 12.9179 28.1397 10.8041 26.0259C8.69033 23.9121 7.50281 21.0452 7.50281 18.0558Z" fill="#333333"/>
</svg>
