<svg width="57" height="58" viewBox="0 0 57 58" fill="none" xmlns="http://www.w3.org/2000/svg">
<g filter="url(#filter0_d_16_675)">
<path d="M11.4946 21.7979C11.4946 12.2301 19.2604 4.47394 28.8281 4.47394C38.3959 4.47394 46.1616 12.2301 46.1616 21.7979C46.1616 31.3656 38.3959 39.1218 28.8281 39.1218C19.2604 39.1218 11.4946 31.3656 11.4946 21.7979Z" fill="url(#paint0_linear_16_675)"/>
<path d="M13.1255 21.7979C13.1255 13.132 20.1599 6.10483 28.8281 6.10483C37.4963 6.10483 44.5307 13.132 44.5307 21.7979C44.5307 30.4637 37.4963 37.4909 28.8281 37.4909C20.1599 37.4909 13.1255 30.4637 13.1255 21.7979Z" stroke="white" stroke-opacity="0.2" stroke-width="3.26179"/>
<path d="M15.5435 22.011C15.5435 14.5607 21.5905 8.52106 29.0408 8.52106C36.4911 8.52106 42.5382 14.5607 42.5382 22.011C42.5382 29.4612 36.4911 35.5009 29.0408 35.5009C21.5905 35.5009 15.5435 29.4612 15.5435 22.011Z" fill="url(#paint1_linear_16_675)"/>
</g>
<defs>
<filter id="filter0_d_16_675" x="0.737893" y="0.854567" width="56.1614" height="56.1618" filterUnits="userSpaceOnUse" color-interpolation-filters="sRGB">
<feFlood flood-opacity="0" result="BackgroundImageFix"/>
<feColorMatrix in="SourceAlpha" type="matrix" values="0 0 0 0 0 0 0 0 0 0 0 0 0 0 0 0 0 0 127 0" result="hardAlpha"/>
<feOffset dy="7.15781"/>
<feGaussianBlur stdDeviation="5.36836"/>
<feComposite in2="hardAlpha" operator="out"/>
<feColorMatrix type="matrix" values="0 0 0 0 0.917647 0 0 0 0 0.690196 0 0 0 0 0.12549 0 0 0 0.4 0"/>
<feBlend mode="normal" in2="BackgroundImageFix" result="effect1_dropShadow_16_675"/>
<feBlend mode="normal" in="SourceGraphic" in2="effect1_dropShadow_16_675" result="shape"/>
</filter>
<linearGradient id="paint0_linear_16_675" x1="17.5816" y1="7.71856" x2="36.5814" y2="37.6828" gradientUnits="userSpaceOnUse">
<stop stop-color="#FFE092"/>
<stop offset="1" stop-color="#E3A302"/>
</linearGradient>
<linearGradient id="paint1_linear_16_675" x1="20.2833" y1="11.0476" x2="35.0781" y2="34.3803" gradientUnits="userSpaceOnUse">
<stop stop-color="#FFE092"/>
<stop offset="1" stop-color="#E3A302"/>
</linearGradient>
</defs>
</svg>
