<svg width="27" height="27" viewBox="0 0 27 27" fill="none" xmlns="http://www.w3.org/2000/svg">
<path opacity="0.3" d="M20.0417 6.96207C20.6305 6.96207 21.1078 6.48475 21.1078 5.89595C21.1078 5.30715 20.6305 4.82983 20.0417 4.82983C19.4529 4.82983 18.9756 5.30715 18.9756 5.89595C18.9756 6.48475 19.4529 6.96207 20.0417 6.96207Z" fill="black"/>
<path opacity="0.3" d="M7.24776 14.4247C7.83656 14.4247 8.31388 13.9474 8.31388 13.3586C8.31388 12.7698 7.83656 12.2925 7.24776 12.2925C6.65896 12.2925 6.18164 12.7698 6.18164 13.3586C6.18164 13.9474 6.65896 14.4247 7.24776 14.4247Z" fill="black"/>
<path opacity="0.3" d="M20.0417 21.9088C20.6305 21.9088 21.1078 21.4315 21.1078 20.8427C21.1078 20.2539 20.6305 19.7766 20.0417 19.7766C19.4529 19.7766 18.9756 20.2539 18.9756 20.8427C18.9756 21.4315 19.4529 21.9088 20.0417 21.9088Z" fill="black"/>
<path d="M20.0411 17.7087C19.2308 17.7087 18.5059 18.0285 17.9515 18.5296L10.3501 14.1052C10.4034 13.86 10.446 13.6148 10.446 13.3589C10.446 13.1031 10.4034 12.8579 10.3501 12.6127L17.8662 8.23091C18.4419 8.76397 19.1989 9.09447 20.0411 9.09447C21.8109 9.09447 23.2395 7.66587 23.2395 5.89611C23.2395 4.12635 21.8109 2.69775 20.0411 2.69775C18.2713 2.69775 16.8427 4.12635 16.8427 5.89611C16.8427 6.15198 16.8854 6.39719 16.9387 6.64239L9.42255 11.0241C8.84685 10.4911 8.08991 10.1606 7.24767 10.1606C5.47792 10.1606 4.04932 11.5892 4.04932 13.3589C4.04932 15.1287 5.47792 16.5573 7.24767 16.5573C8.08991 16.5573 8.84685 16.2268 9.42255 15.6937L17.0133 20.1288C16.96 20.3527 16.928 20.5872 16.928 20.8218C16.928 22.5382 18.3246 23.9348 20.0411 23.9348C21.7575 23.9348 23.1542 22.5382 23.1542 20.8218C23.1542 19.1053 21.7575 17.7087 20.0411 17.7087ZM20.0411 4.82999C20.6275 4.82999 21.1072 5.30974 21.1072 5.89611C21.1072 6.48248 20.6275 6.96223 20.0411 6.96223C19.4547 6.96223 18.975 6.48248 18.975 5.89611C18.975 5.30974 19.4547 4.82999 20.0411 4.82999ZM7.24767 14.4251C6.66131 14.4251 6.18155 13.9453 6.18155 13.3589C6.18155 12.7726 6.66131 12.2928 7.24767 12.2928C7.83404 12.2928 8.31379 12.7726 8.31379 13.3589C8.31379 13.9453 7.83404 14.4251 7.24767 14.4251ZM20.0411 21.9092C19.4547 21.9092 18.975 21.4295 18.975 20.8431C18.975 20.2567 19.4547 19.777 20.0411 19.777C20.6275 19.777 21.1072 20.2567 21.1072 20.8431C21.1072 21.4295 20.6275 21.9092 20.0411 21.9092Z" fill="white"/>
</svg>
