<svg width="34" height="36" viewBox="0 0 34 36" fill="none" xmlns="http://www.w3.org/2000/svg">
<path d="M17.0287 17.8492C17.7977 17.8492 18.4563 17.568 19.0044 17.0055C19.5525 16.443 19.8261 15.7676 19.8252 14.9793C19.8252 14.1901 19.5511 13.5142 19.003 12.9517C18.4549 12.3892 17.7968 12.1084 17.0287 12.1094C16.2597 12.1094 15.6011 12.3906 15.053 12.9532C14.5049 13.5157 14.2313 14.191 14.2322 14.9793C14.2322 15.7685 14.5063 16.4444 15.0544 17.0069C15.6025 17.5694 16.2606 17.8502 17.0287 17.8492ZM17.0287 32.1988C13.2768 28.9223 10.4747 25.8793 8.62248 23.0696C6.77027 20.26 5.84371 17.6589 5.84277 15.2663C5.84277 11.6789 6.96743 8.82094 9.21673 6.69242C11.466 4.5639 14.07 3.49963 17.0287 3.49963C19.9883 3.49963 22.5928 4.5639 24.8421 6.69242C27.0914 8.82094 28.2156 11.6789 28.2146 15.2663C28.2146 17.6579 27.2881 20.259 25.4349 23.0696C23.5818 25.8802 20.7797 28.9233 17.0287 32.1988Z" fill="#544C4C"/>
</svg>
